<svg width="32" height="31" viewBox="0 0 32 31" fill="none" xmlns="http://www.w3.org/2000/svg">
<path d="M12.375 19.125C12.375 19.4234 12.2565 19.7095 12.0455 19.9205C11.8345 20.1315 11.5484 20.25 11.25 20.25H5.625C5.32663 20.25 5.04048 20.1315 4.82951 19.9205C4.61853 19.7095 4.5 19.4234 4.5 19.125C4.5 18.8266 4.61853 18.5405 4.82951 18.3295C5.04048 18.1185 5.32663 18 5.625 18H11.25C11.5484 18 11.8345 18.1185 12.0455 18.3295C12.2565 18.5405 12.375 18.8266 12.375 19.125ZM31.5 14.0625V22.5C31.5 23.0967 31.2629 23.669 30.841 24.091C30.419 24.5129 29.8467 24.75 29.25 24.75H16.875V29.25C16.875 29.5484 16.7565 29.8345 16.5455 30.0455C16.3345 30.2565 16.0484 30.375 15.75 30.375C15.4516 30.375 15.1655 30.2565 14.9545 30.0455C14.7435 29.8345 14.625 29.5484 14.625 29.25V24.75H2.25C1.65326 24.75 1.08097 24.5129 0.65901 24.091C0.237053 23.669 0 23.0967 0 22.5V14.0625C0.00260524 11.8255 0.89239 9.68094 2.47416 8.09916C4.05594 6.51739 6.20054 5.62761 8.4375 5.625H19.125V1.125C19.125 0.826631 19.2435 0.540483 19.4545 0.329505C19.6655 0.118526 19.9516 0 20.25 0H24.75C25.0484 0 25.3345 0.118526 25.5455 0.329505C25.7565 0.540483 25.875 0.826631 25.875 1.125C25.875 1.42337 25.7565 1.70952 25.5455 1.9205C25.3345 2.13147 25.0484 2.25 24.75 2.25H21.375V5.625H23.0625C25.2995 5.62761 27.4441 6.51739 29.0258 8.09916C30.6076 9.68094 31.4974 11.8255 31.5 14.0625ZM14.625 22.5V14.0625C14.625 12.4215 13.9731 10.8477 12.8127 9.68728C11.6523 8.5269 10.0785 7.875 8.4375 7.875C6.79647 7.875 5.22266 8.5269 4.06228 9.68728C2.9019 10.8477 2.25 12.4215 2.25 14.0625V22.5H14.625ZM29.25 14.0625C29.2481 12.422 28.5956 10.8493 27.4357 9.68933C26.2757 8.52935 24.703 7.87686 23.0625 7.875H21.375V18C21.375 18.2984 21.2565 18.5845 21.0455 18.7955C20.8345 19.0065 20.5484 19.125 20.25 19.125C19.9516 19.125 19.6655 19.0065 19.4545 18.7955C19.2435 18.5845 19.125 18.2984 19.125 18V7.875H14.168C15.0219 8.66357 15.7033 9.62045 16.1692 10.6854C16.6351 11.7503 16.8754 12.9001 16.875 14.0625V22.5H29.25V14.0625Z" fill="white"/>
</svg>
