<svg width="35" height="35" viewBox="0 0 35 35" fill="none" xmlns="http://www.w3.org/2000/svg">
<g clip-path="url(#clip0_820_18)">
<path d="M13.9524 2.43742C13.9048 2.25974 13.8228 2.09317 13.7109 1.94722C13.5989 1.80128 13.4594 1.67881 13.3001 1.58683C13.1408 1.49484 12.965 1.43514 12.7826 1.41113C12.6003 1.38712 12.415 1.39928 12.2373 1.44691C9.64194 2.12408 7.27396 3.48086 5.37729 5.37751C3.48062 7.27416 2.12383 9.64213 1.44666 12.2375C1.39903 12.4152 1.38687 12.6005 1.41088 12.7828C1.43489 12.9652 1.49459 13.141 1.58657 13.3003C1.67856 13.4595 1.80103 13.5991 1.94698 13.711C2.09293 13.8229 2.25949 13.905 2.43717 13.9525C2.55543 13.9836 2.67716 13.9995 2.79943 13.9998C3.10794 13.9998 3.40782 13.8979 3.65244 13.7099C3.89707 13.5219 4.07276 13.2584 4.1522 12.9603C4.70449 10.8416 5.81182 8.90847 7.36005 7.36026C8.90828 5.81204 10.8414 4.70472 12.9601 4.15244C13.1379 4.1051 13.3047 4.02317 13.4508 3.91133C13.597 3.79949 13.7196 3.65993 13.8118 3.50065C13.904 3.34136 13.9638 3.16547 13.9879 2.98303C14.0121 2.80059 14 2.61518 13.9524 2.43742ZM14.3601 9.75249C11.9468 10.3965 10.3963 11.947 9.7523 14.3603C9.67286 14.6584 9.49717 14.9219 9.25254 15.1099C9.00791 15.2979 8.70804 15.3998 8.39953 15.3998C8.27726 15.3995 8.15553 15.3836 8.03727 15.3525C7.85959 15.305 7.69302 15.223 7.54707 15.111C7.40112 14.9991 7.27865 14.8595 7.18667 14.7003C7.09468 14.541 7.03498 14.3652 7.01097 14.1828C6.98697 14.0005 6.99913 13.8152 7.04675 13.6375C7.94277 10.2845 10.2843 7.94297 13.6374 7.04696C13.9961 6.95112 14.3783 7.00173 14.6998 7.18765C15.0212 7.37357 15.2557 7.67957 15.3515 8.03835C15.4474 8.39712 15.3968 8.77928 15.2108 9.10074C15.0249 9.42221 14.7189 9.65665 14.3601 9.75249ZM0.0203819 26.4389C0.332424 28.8102 1.49701 30.9869 3.29661 32.5623C5.09621 34.1378 7.40777 35.0043 9.79955 35C23.6948 35 35 23.6949 35 9.79974C35.0043 7.40798 34.1378 5.09643 32.5623 3.29684C30.9869 1.49726 28.8102 0.332686 26.4388 0.020646C25.8392 -0.052573 25.2319 0.0701052 24.7077 0.370367C24.1835 0.670629 23.7705 1.13237 23.5303 1.68666L19.8342 9.93799V9.95899C19.6503 10.3833 19.5744 10.8465 19.6131 11.3073C19.6519 11.7681 19.8042 12.2122 20.0565 12.5998C20.088 12.647 20.1212 12.6908 20.1562 12.7345L23.7998 17.0536C22.489 19.7171 19.703 22.4786 17.0044 23.7929L12.7449 20.1686C12.703 20.1334 12.6592 20.1007 12.6136 20.0706C12.2263 19.8123 11.7808 19.6546 11.3172 19.6118C10.8537 19.5691 10.3868 19.6425 9.95881 19.8256L9.93605 19.8361L1.69166 23.5304C1.13639 23.7697 0.673515 24.1824 0.372261 24.7067C0.0710068 25.2309 -0.0524406 25.8386 0.0203819 26.4389ZM2.79943 26.0889C2.79943 26.0889 2.81168 26.0889 2.81868 26.0889L11.0438 22.4051L15.3051 26.0294C15.3465 26.0644 15.3897 26.0971 15.4346 26.1274C15.8376 26.3962 16.3034 26.5559 16.7865 26.5909C17.2696 26.6258 17.7535 26.5349 18.1909 26.3269C21.4688 24.7431 24.7361 21.5004 26.3216 18.2576C26.5315 17.8233 26.6257 17.3422 26.5951 16.8608C26.5644 16.3794 26.4099 15.9142 26.1466 15.51C26.1169 15.4626 26.0835 15.4175 26.0468 15.3753L22.3998 11.051L26.0748 2.82592C26.0755 2.81894 26.0755 2.81191 26.0748 2.80492C27.7719 3.0263 29.3301 3.85872 30.4576 5.1463C31.5851 6.43387 32.2045 8.0883 32.1999 9.79974C32.1935 15.7387 29.8313 21.4325 25.6319 25.6319C21.4324 29.8314 15.7385 32.1935 9.79955 32.2C8.08915 32.2058 6.43515 31.5885 5.14682 30.4635C3.85849 29.3385 3.02402 27.7827 2.79943 26.0871V26.0889Z" fill="#F1F5F9"/>
</g>
<defs>
<clipPath id="clip0_820_18">
<rect width="35" height="35" fill="white"/>
</clipPath>
</defs>
</svg>
