<svg width="35" height="38" viewBox="0 0 35 38" fill="none" xmlns="http://www.w3.org/2000/svg">
<path d="M33.6 8.50504L18.7923 0.334645C18.3964 0.11511 17.9518 0 17.5 0C17.0482 0 16.6036 0.11511 16.2077 0.334645L1.4 8.51013C0.97712 8.74345 0.624116 9.08699 0.377852 9.50487C0.131587 9.92275 0.00109418 10.3996 0 10.8857V27.1145C0.00109418 27.6006 0.131587 28.0775 0.377852 28.4954C0.624116 28.9133 0.97712 29.2568 1.4 29.4901L16.2077 37.6639C16.6033 37.8844 17.048 38 17.5 38C17.952 38 18.3967 37.8844 18.7923 37.6639L33.6 29.4901C34.0229 29.2568 34.3759 28.9133 34.6222 28.4954C34.8684 28.0775 34.9989 27.6006 35 27.1145V10.8857C34.9998 10.3988 34.8697 9.92082 34.6234 9.50197C34.3771 9.08312 34.0236 8.73878 33.6 8.50504ZM24.2308 23.0726V31.5722L18.8462 34.5451V19.8044L32.3077 12.3722V17.8021L24.9308 21.8746C24.7178 21.9921 24.5403 22.1655 24.4171 22.3764C24.2939 22.5873 24.2295 22.8278 24.2308 23.0726ZM10.0692 21.8848L2.69231 17.8123V12.3824L16.1538 19.8146V34.5553L10.7692 31.5722V23.0726C10.7687 22.8295 10.7034 22.5911 10.5803 22.3822C10.4572 22.1732 10.2807 22.0015 10.0692 21.8848ZM9.95144 6.88284L16.8505 10.6923C17.0486 10.8016 17.2708 10.8589 17.4966 10.8589C17.7225 10.8589 17.9447 10.8016 18.1428 10.6923L25.0418 6.88284L30.8437 10.0848L17.5 17.4526L4.14952 10.0814L9.95144 6.88284ZM17.5 2.71025L22.2452 5.33021L17.5 7.95186L12.7548 5.3319L17.5 2.71025ZM2.69231 20.904L8.07692 23.8769V30.0857L2.69231 27.1145V20.904ZM26.9231 30.0857V23.8769L32.3077 20.904V27.1145L26.9231 30.0857Z" fill="#F1F5F9"/>
</svg>
