<svg width="40" height="43" viewBox="0 0 40 43" fill="none" xmlns="http://www.w3.org/2000/svg">
<path d="M38.4 9.62412L21.4769 0.378677C21.0244 0.130256 20.5164 0 20 0C19.4836 0 18.9756 0.130256 18.5231 0.378677L1.6 9.62988C1.11671 9.89391 0.713276 10.2826 0.43183 10.7555C0.150385 11.2284 0.0012505 11.768 0 12.3181V30.6822C0.0012505 31.2323 0.150385 31.7719 0.43183 32.2448C0.713276 32.7176 1.11671 33.1064 1.6 33.3704L18.5231 42.6197C18.9752 42.8691 19.4834 43 20 43C20.5166 43 21.0248 42.8691 21.4769 42.6197L38.4 33.3704C38.8833 33.1064 39.2867 32.7176 39.5682 32.2448C39.8496 31.7719 39.9988 31.2323 40 30.6822V12.3181C39.9998 11.767 39.8511 11.2262 39.5696 10.7522C39.2881 10.2783 38.8841 9.88862 38.4 9.62412ZM27.6923 26.1085V35.7264L21.5385 39.0905V22.4103L36.9231 14.0001V20.1445L28.4923 24.7529C28.2489 24.8858 28.0461 25.082 27.9053 25.3206C27.7644 25.5593 27.6909 25.8315 27.6923 26.1085ZM11.5077 24.7644L3.07692 20.156V14.0116L18.4615 22.4218V39.102L12.3077 35.7264V26.1085C12.3071 25.8334 12.2325 25.5636 12.0918 25.3272C11.9511 25.0908 11.7493 24.8964 11.5077 24.7644ZM11.3731 7.78847L19.2577 12.0992C19.4841 12.2229 19.7381 12.2877 19.9962 12.2877C20.2542 12.2877 20.5082 12.2229 20.7346 12.0992L28.6192 7.78847L35.25 11.4118L20 19.749L4.74231 11.4079L11.3731 7.78847ZM20 3.06686L25.4231 6.03155L20 8.99816L14.5769 6.03347L20 3.06686ZM3.07692 23.6545L9.23077 27.0186V34.0444L3.07692 30.6822V23.6545ZM30.7692 34.0444V27.0186L36.9231 23.6545V30.6822L30.7692 34.0444Z" fill="black"/>
</svg>
