<svg width="20" height="20" viewBox="0 0 20 20" fill="none" xmlns="http://www.w3.org/2000/svg">
<path d="M19.288 4.78519C19.5144 4.05482 19.587 3.28546 19.5013 2.52562C19.4155 1.76577 19.1733 1.03194 18.7898 0.370382C18.7248 0.257751 18.6313 0.164226 18.5186 0.099211C18.406 0.034196 18.2782 -1.70864e-05 18.1481 1.21216e-05C17.2854 -0.00179383 16.4341 0.198219 15.6624 0.584071C14.8907 0.969923 14.2199 1.53092 13.7037 2.22223H11.4815C10.9653 1.53092 10.2945 0.969923 9.52278 0.584071C8.75108 0.198219 7.89983 -0.00179383 7.03704 1.21216e-05C6.90698 -1.70864e-05 6.77921 0.034196 6.66657 0.099211C6.55393 0.164226 6.4604 0.257751 6.39537 0.370382C6.0119 1.03194 5.76965 1.76577 5.68392 2.52562C5.59818 3.28546 5.67081 4.05482 5.89722 4.78519C5.43956 5.584 5.19441 6.48684 5.18518 7.40741V8.14816C5.18674 9.40149 5.64173 10.6119 6.46613 11.556C7.29053 12.5 8.42867 13.1139 9.67037 13.2843C9.16353 13.9328 8.88841 14.7324 8.88889 15.5556V16.2963H6.66667C6.0773 16.2963 5.51207 16.0622 5.09532 15.6454C4.67857 15.2287 4.44444 14.6634 4.44444 14.0741C4.44444 13.5877 4.34865 13.1061 4.16252 12.6567C3.97639 12.2074 3.70358 11.7991 3.35965 11.4552C3.01573 11.1112 2.60744 10.8384 2.15809 10.6523C1.70873 10.4662 1.22712 10.3704 0.740741 10.3704C0.544284 10.3704 0.355874 10.4484 0.216958 10.5873C0.0780421 10.7262 0 10.9147 0 11.1111C0 11.3076 0.0780421 11.496 0.216958 11.6349C0.355874 11.7738 0.544284 11.8519 0.740741 11.8519C1.33011 11.8519 1.89534 12.086 2.31209 12.5027C2.72884 12.9195 2.96296 13.4847 2.96296 14.0741C2.96296 15.0564 3.35317 15.9984 4.04775 16.693C4.74233 17.3876 5.68438 17.7778 6.66667 17.7778H8.88889V19.2593C8.88889 19.4557 8.96693 19.6441 9.10585 19.783C9.24476 19.922 9.43317 20 9.62963 20C9.82609 20 10.0145 19.922 10.1534 19.783C10.2923 19.6441 10.3704 19.4557 10.3704 19.2593V15.5556C10.3704 14.9662 10.6045 14.401 11.0212 13.9842C11.438 13.5675 12.0032 13.3333 12.5926 13.3333C13.182 13.3333 13.7472 13.5675 14.1639 13.9842C14.5807 14.401 14.8148 14.9662 14.8148 15.5556V19.2593C14.8148 19.4557 14.8929 19.6441 15.0318 19.783C15.1707 19.922 15.3591 20 15.5556 20C15.752 20 15.9404 19.922 16.0793 19.783C16.2183 19.6441 16.2963 19.4557 16.2963 19.2593V15.5556C16.2968 14.7324 16.0217 13.9328 15.5148 13.2843C16.7565 13.1139 17.8947 12.5 18.7191 11.556C19.5435 10.6119 19.9984 9.40149 20 8.14816V7.40741C19.9908 6.48684 19.7456 5.584 19.288 4.78519ZM18.5185 8.14816C18.5185 9.13044 18.1283 10.0725 17.4337 10.7671C16.7391 11.4616 15.7971 11.8519 14.8148 11.8519H10.3704C9.38809 11.8519 8.44604 11.4616 7.75146 10.7671C7.05688 10.0725 6.66667 9.13044 6.66667 8.14816V7.40741C6.67575 6.6667 6.89751 5.9442 7.30556 5.32593C7.38162 5.22568 7.43089 5.10769 7.44871 4.98311C7.46653 4.85853 7.45231 4.73146 7.40741 4.6139C7.21446 4.1163 7.12161 3.58553 7.13416 3.05198C7.14671 2.51844 7.26443 1.99261 7.48056 1.50464C8.08677 1.56986 8.67054 1.77067 9.18859 2.09221C9.70663 2.41374 10.1457 2.84774 10.4731 3.36205C10.5399 3.4664 10.6317 3.55236 10.7403 3.61205C10.8488 3.67174 10.9706 3.70325 11.0944 3.70371H14.0898C14.2142 3.70372 14.3365 3.67242 14.4456 3.61271C14.5546 3.553 14.6469 3.4668 14.7139 3.36205C15.0413 2.8477 15.4803 2.41366 15.9984 2.09212C16.5165 1.77058 17.1002 1.56979 17.7065 1.50464C17.9223 1.99273 18.0397 2.51862 18.0519 3.05217C18.0642 3.58571 17.971 4.11642 17.7778 4.6139C17.733 4.73034 17.718 4.85612 17.7342 4.97981C17.7504 5.10351 17.7972 5.22121 17.8704 5.32223C18.2825 5.9405 18.5075 6.66448 18.5185 7.40741V8.14816Z" fill="white"/>
</svg>
