<svg width="35" height="35" viewBox="0 0 35 35" fill="none" xmlns="http://www.w3.org/2000/svg">
<g clip-path="url(#clip0_820_13)">
<path d="M17.5 0C14.0388 0 10.6554 1.02636 7.77753 2.94928C4.89967 4.87221 2.65665 7.60533 1.33212 10.803C0.00758248 14.0007 -0.338976 17.5194 0.336265 20.9141C1.01151 24.3087 2.67822 27.4269 5.12564 29.8744C7.57306 32.3218 10.6913 33.9885 14.0859 34.6637C17.4806 35.339 20.9993 34.9924 24.197 33.6679C27.3947 32.3433 30.1278 30.1003 32.0507 27.2225C33.9736 24.3446 35 20.9612 35 17.5C34.9951 12.8602 33.1498 8.41187 29.869 5.13104C26.5881 1.85022 22.1398 0.00489969 17.5 0ZM17.5 32.3077C14.5713 32.3077 11.7084 31.4392 9.27329 29.8121C6.83818 28.185 4.94024 25.8724 3.81948 23.1667C2.69872 20.4609 2.40548 17.4836 2.97684 14.6112C3.5482 11.7387 4.95849 9.10027 7.02939 7.02938C9.10028 4.95849 11.7388 3.54819 14.6112 2.97683C17.4836 2.40547 20.4609 2.69872 23.1667 3.81948C25.8724 4.94023 28.1851 6.83817 29.8121 9.27328C31.4392 11.7084 32.3077 14.5713 32.3077 17.5C32.3032 21.4259 30.7417 25.1897 27.9657 27.9657C25.1897 30.7417 21.4259 32.3032 17.5 32.3077ZM20.1923 25.5769C20.1923 25.9339 20.0505 26.2763 19.798 26.5288C19.5456 26.7812 19.2032 26.9231 18.8462 26.9231C18.1321 26.9231 17.4473 26.6394 16.9424 26.1345C16.4375 25.6296 16.1539 24.9448 16.1539 24.2308V17.5C15.7968 17.5 15.4544 17.3582 15.202 17.1057C14.9495 16.8533 14.8077 16.5109 14.8077 16.1538C14.8077 15.7968 14.9495 15.4544 15.202 15.202C15.4544 14.9495 15.7968 14.8077 16.1539 14.8077C16.8679 14.8077 17.5527 15.0913 18.0576 15.5962C18.5625 16.1012 18.8462 16.786 18.8462 17.5V24.2308C19.2032 24.2308 19.5456 24.3726 19.798 24.625C20.0505 24.8775 20.1923 25.2199 20.1923 25.5769ZM14.8077 10.0962C14.8077 9.69678 14.9261 9.30639 15.148 8.97433C15.3699 8.64227 15.6852 8.38346 16.0542 8.23063C16.4232 8.0778 16.8292 8.03781 17.2209 8.11572C17.6126 8.19363 17.9723 8.38595 18.2547 8.66834C18.5371 8.95073 18.7294 9.31053 18.8074 9.70222C18.8853 10.0939 18.8453 10.4999 18.6925 10.8689C18.5396 11.2378 18.2808 11.5532 17.9487 11.7751C17.6167 11.997 17.2263 12.1154 16.8269 12.1154C16.2914 12.1154 15.7778 11.9026 15.3991 11.524C15.0204 11.1453 14.8077 10.6317 14.8077 10.0962Z" fill="#F1F5F9"/>
</g>
<defs>
<clipPath id="clip0_820_13">
<rect width="35" height="35" fill="white"/>
</clipPath>
</defs>
</svg>
