<svg width="40" height="34" viewBox="0 0 40 34" fill="none" xmlns="http://www.w3.org/2000/svg">
<g clip-path="url(#clip0_828_139)">
<path d="M15.7143 12.75C15.7143 12.3743 15.8648 12.0139 16.1327 11.7483C16.4006 11.4826 16.764 11.3333 17.1429 11.3333H28.5714C28.9503 11.3333 29.3137 11.4826 29.5816 11.7483C29.8495 12.0139 30 12.3743 30 12.75C30 13.1257 29.8495 13.4861 29.5816 13.7517C29.3137 14.0174 28.9503 14.1667 28.5714 14.1667H17.1429C16.764 14.1667 16.4006 14.0174 16.1327 13.7517C15.8648 13.4861 15.7143 13.1257 15.7143 12.75ZM17.1429 19.8333H28.5714C28.9503 19.8333 29.3137 19.6841 29.5816 19.4184C29.8495 19.1527 30 18.7924 30 18.4167C30 18.0409 29.8495 17.6806 29.5816 17.4149C29.3137 17.1493 28.9503 17 28.5714 17H17.1429C16.764 17 16.4006 17.1493 16.1327 17.4149C15.8648 17.6806 15.7143 18.0409 15.7143 18.4167C15.7143 18.7924 15.8648 19.1527 16.1327 19.4184C16.4006 19.6841 16.764 19.8333 17.1429 19.8333ZM40 28.3333C40 29.8362 39.398 31.2776 38.3263 32.3403C37.2547 33.403 35.8012 34 34.2857 34H14.2857C12.7702 34 11.3167 33.403 10.2451 32.3403C9.17347 31.2776 8.57143 29.8362 8.57143 28.3333V5.66667C8.57143 4.91522 8.27041 4.19455 7.73459 3.6632C7.19877 3.13184 6.47205 2.83333 5.71429 2.83333C4.95652 2.83333 4.2298 3.13184 3.69398 3.6632C3.15816 4.19455 2.85714 4.91522 2.85714 5.66667C2.85714 6.68312 3.71964 7.37021 3.72857 7.37729C3.965 7.55772 4.13854 7.80703 4.22483 8.09023C4.31112 8.37343 4.30584 8.67632 4.20973 8.9564C4.11362 9.23647 3.9315 9.47968 3.68892 9.6519C3.44634 9.82412 3.15548 9.9167 2.85714 9.91667C2.54822 9.9172 2.24767 9.81702 2.00179 9.63156C1.79464 9.48104 0 8.07677 0 5.66667C0 4.16377 0.602039 2.72243 1.67368 1.65973C2.74531 0.597022 4.19876 0 5.71429 0H30C31.5155 0 32.969 0.597022 34.0406 1.65973C35.1122 2.72243 35.7143 4.16377 35.7143 5.66667V24.0833H37.1429C37.452 24.0833 37.7527 24.1828 38 24.3667C38.2143 24.519 40 25.9232 40 28.3333ZM15.7607 25.0537C15.8583 24.768 16.0446 24.5203 16.2929 24.346C16.5411 24.1716 16.8387 24.0797 17.1429 24.0833H32.8571V5.66667C32.8571 4.91522 32.5561 4.19455 32.0203 3.6632C31.4845 3.13184 30.7578 2.83333 30 2.83333H10.6589C11.1642 3.69344 11.4298 4.67127 11.4286 5.66667V28.3333C11.4286 29.0848 11.7296 29.8054 12.2654 30.3368C12.8012 30.8682 13.528 31.1667 14.2857 31.1667C15.0435 31.1667 15.7702 30.8682 16.306 30.3368C16.8418 29.8054 17.1429 29.0848 17.1429 28.3333C17.1429 27.3169 16.2804 26.6298 16.2714 26.6227C16.028 26.45 15.8469 26.2043 15.755 25.9218C15.663 25.6393 15.665 25.335 15.7607 25.0537ZM37.1429 28.3333C37.125 27.8085 36.9207 27.3067 36.5661 26.9167H19.7804C19.9239 27.3754 19.9968 27.853 19.9964 28.3333C19.9978 29.3283 19.7335 30.3059 19.2304 31.1667H34.2857C35.0435 31.1667 35.7702 30.8682 36.306 30.3368C36.8418 29.8054 37.1429 29.0848 37.1429 28.3333Z" fill="black"/>
</g>
<defs>
<clipPath id="clip0_828_139">
<rect width="40" height="34" fill="white"/>
</clipPath>
</defs>
</svg>
