<svg width="35" height="30" viewBox="0 0 35 30" fill="none" xmlns="http://www.w3.org/2000/svg">
<g clip-path="url(#clip0_820_21)">
<path d="M13.75 11.25C13.75 10.9185 13.8817 10.6005 14.1161 10.3661C14.3505 10.1317 14.6685 10 15 10H25C25.3315 10 25.6495 10.1317 25.8839 10.3661C26.1183 10.6005 26.25 10.9185 26.25 11.25C26.25 11.5815 26.1183 11.8995 25.8839 12.1339C25.6495 12.3683 25.3315 12.5 25 12.5H15C14.6685 12.5 14.3505 12.3683 14.1161 12.1339C13.8817 11.8995 13.75 11.5815 13.75 11.25ZM15 17.5H25C25.3315 17.5 25.6495 17.3683 25.8839 17.1339C26.1183 16.8995 26.25 16.5815 26.25 16.25C26.25 15.9185 26.1183 15.6005 25.8839 15.3661C25.6495 15.1317 25.3315 15 25 15H15C14.6685 15 14.3505 15.1317 14.1161 15.3661C13.8817 15.6005 13.75 15.9185 13.75 16.25C13.75 16.5815 13.8817 16.8995 14.1161 17.1339C14.3505 17.3683 14.6685 17.5 15 17.5ZM35 25C35 26.3261 34.4732 27.5979 33.5355 28.5355C32.5979 29.4732 31.3261 30 30 30H12.5C11.1739 30 9.90215 29.4732 8.96447 28.5355C8.02678 27.5979 7.5 26.3261 7.5 25V5C7.5 4.33696 7.23661 3.70107 6.76777 3.23223C6.29893 2.76339 5.66304 2.5 5 2.5C4.33696 2.5 3.70107 2.76339 3.23223 3.23223C2.76339 3.70107 2.5 4.33696 2.5 5C2.5 5.89687 3.25469 6.50313 3.2625 6.50938C3.46938 6.66858 3.62122 6.88855 3.69673 7.13844C3.77223 7.38832 3.76761 7.65558 3.68352 7.9027C3.59942 8.14983 3.44006 8.36443 3.2278 8.51638C3.01555 8.66834 2.76104 8.75003 2.5 8.75C2.22969 8.75047 1.96672 8.66208 1.75156 8.49844C1.57031 8.36562 0 7.12656 0 5C0 3.67392 0.526784 2.40215 1.46447 1.46447C2.40215 0.526784 3.67392 0 5 0H26.25C27.5761 0 28.8479 0.526784 29.7855 1.46447C30.7232 2.40215 31.25 3.67392 31.25 5V21.25H32.5C32.7705 21.25 33.0336 21.3377 33.25 21.5C33.4375 21.6344 35 22.8734 35 25ZM13.7906 22.1062C13.876 21.8541 14.039 21.6355 14.2563 21.4817C14.4735 21.3279 14.7338 21.2468 15 21.25H28.75V5C28.75 4.33696 28.4866 3.70107 28.0178 3.23223C27.5489 2.76339 26.913 2.5 26.25 2.5H9.32656C9.76866 3.25892 10.0011 4.12171 10 5V25C10 25.663 10.2634 26.2989 10.7322 26.7678C11.2011 27.2366 11.837 27.5 12.5 27.5C13.163 27.5 13.7989 27.2366 14.2678 26.7678C14.7366 26.2989 15 25.663 15 25C15 24.1031 14.2453 23.4969 14.2375 23.4906C14.0245 23.3382 13.8661 23.1214 13.7856 22.8722C13.7051 22.6229 13.7069 22.3544 13.7906 22.1062ZM32.5 25C32.4844 24.5369 32.3056 24.0942 31.9953 23.75H17.3078C17.4334 24.1548 17.4972 24.5762 17.4969 25C17.4981 25.8779 17.2668 26.7405 16.8266 27.5H30C30.663 27.5 31.2989 27.2366 31.7678 26.7678C32.2366 26.2989 32.5 25.663 32.5 25Z" fill="#F1F5F9"/>
</g>
<defs>
<clipPath id="clip0_820_21">
<rect width="35" height="30" fill="white"/>
</clipPath>
</defs>
</svg>
