<svg width="63" height="70" viewBox="0 0 63 70" fill="none" xmlns="http://www.w3.org/2000/svg">
<path d="M62.1007 0L56.2778 63.0703L31.0499 69.863L5.82162 63.0703L0 0H62.1007ZM50.3673 12.8244H31.0272H11.3445L12.2858 20.4407H31.0272H32.08L31.0272 20.8789L12.9708 28.3992L13.5696 35.844L31.0272 35.9006L40.384 35.9302L39.785 45.8568L31.0271 48.3226V48.3148L30.9553 48.3347L22.4973 46.1996L21.9841 40.0377H21.9561H14.1109H14.0833L15.1102 51.9332L31.0274 56.6403V56.6318L31.0561 56.6403L46.888 52.0189L48.9416 28.3992H31.0274H30.9832L31.0274 28.3801L49.5979 20.4407L50.3673 12.8244Z" fill="white"/>
</svg>
