<svg width="60" height="60" viewBox="0 0 60 60" fill="none" xmlns="http://www.w3.org/2000/svg">
<path d="M55.1987 0.00538129H5.13738C4.49213 -0.024843 3.84722 0.0724682 3.23963 0.291801C2.63203 0.511133 2.07367 0.848136 1.59645 1.2835C1.11928 1.7189 0.732621 2.24415 0.45869 2.82914C0.184759 3.41416 0.0288743 4.04745 0 4.69277V54.8667C0.0377991 56.2171 0.591211 57.5022 1.54658 58.4573C2.50194 59.4128 3.78681 59.9662 5.13738 60.0041H55.1987C56.5116 59.9456 57.7494 59.3749 58.6468 58.4145C59.5441 57.4542 60.0294 56.1807 59.9986 54.8667V4.69277C60.0095 4.06466 59.8918 3.44101 59.6529 2.86C59.414 2.27903 59.0589 1.75295 58.6093 1.31403C58.16 0.875136 57.6257 0.532695 57.0392 0.307663C56.4527 0.0826305 55.8265 -0.0202306 55.1987 0.00538129ZM18.7496 50.0293H10.0123V23.2925H18.7496V50.0293ZM14.5872 19.2424C13.9775 19.2637 13.3699 19.1586 12.8028 18.9339C12.2356 18.7091 11.7211 18.3695 11.2915 17.9363C10.8618 17.5032 10.5264 16.9859 10.3063 16.4169C10.0861 15.8479 9.98606 15.2396 10.0123 14.63C9.98531 14.0139 10.0874 13.399 10.3121 12.8247C10.5367 12.2504 10.8789 11.7294 11.3168 11.2951C11.7546 10.8608 12.2783 10.5228 12.8544 10.3028C13.4306 10.0828 14.0463 9.9857 14.6622 10.0177C15.2719 9.99643 15.8794 10.1015 16.4465 10.3262C17.0137 10.551 17.5283 10.8906 17.9578 11.3238C18.3875 11.7569 18.7229 12.2742 18.943 12.8432C19.1632 13.4122 19.2633 14.0205 19.2371 14.63C19.264 15.2462 19.1619 15.8611 18.9373 16.4354C18.7126 17.0097 18.3704 17.5307 17.9326 17.965C17.4947 18.3993 16.971 18.7373 16.3949 18.9573C15.8187 19.1773 15.203 19.2744 14.5872 19.2424ZM50.0238 50.0293H41.2491V35.4047C41.2491 31.9173 40.0116 29.5173 36.8992 29.5173C35.9324 29.5256 34.9916 29.8327 34.2063 30.3967C33.4207 30.9607 32.829 31.7538 32.5118 32.6672C32.268 33.352 32.166 34.0791 32.2118 34.8047V50.0293H23.587V23.2925H32.2118V27.0424C32.9786 25.6335 34.1197 24.4643 35.5094 23.6633C36.8992 22.8627 38.4831 22.4618 40.0866 22.5049C45.7489 22.5049 50.0238 26.2549 50.0238 34.2422V50.0293Z" fill="white"/>
</svg>
