<svg width="104" height="70" viewBox="0 0 104 70" fill="none" xmlns="http://www.w3.org/2000/svg">
<path d="M99.7497 32.0435C99.4679 32.0228 99.1414 32.0091 98.8114 32.0091C97.1478 32.0091 95.5564 32.3184 94.0922 32.8821L94.1816 32.8512C93.7519 33.0231 93.0645 33.0231 93.0061 33.5696C93.2432 33.7964 93.2776 34.1711 93.4769 34.4873C93.8791 35.1678 94.374 35.7453 94.9515 36.2265L94.9618 36.2368C95.5633 36.7077 96.1648 37.1648 96.7972 37.567C97.9143 38.2544 99.1826 38.6634 100.276 39.3543C100.898 39.7565 101.534 40.2686 102.166 40.6982C102.479 40.9113 102.682 41.2997 103.084 41.4372V41.3513C102.888 41.0935 102.826 40.7189 102.634 40.4336C102.345 40.1449 102.06 39.8871 101.774 39.6052C100.922 38.4881 99.9354 37.5326 98.8286 36.7352L98.7874 36.7077C97.8696 36.0821 95.8589 35.2057 95.4808 34.1504L95.4258 34.0886C96.1751 33.982 96.8419 33.8239 97.4847 33.6108L97.4022 33.6349C98.3783 33.3771 99.272 33.4321 100.279 33.1812C100.733 33.0643 101.193 32.9234 101.654 32.779V32.5212C101.138 32.0057 100.753 31.3045 100.221 30.8233C98.8148 29.5859 97.2647 28.4241 95.632 27.3792L95.4774 27.2864C94.5768 26.7124 93.4323 26.3412 92.4836 25.8532C92.1399 25.6813 91.5659 25.5954 91.3665 25.3066C90.9197 24.6708 90.5244 23.9421 90.2116 23.1722L90.1841 23.0965C89.3409 21.4605 88.5572 19.7957 87.8331 18.1024C87.3382 16.7859 86.8467 15.7067 86.2933 14.6618L86.3723 14.8233C83.6707 10.2897 79.907 6.64631 75.4147 4.16125L75.2669 4.08563C74.2048 3.55974 72.9709 3.15072 71.675 2.92043L71.5891 2.90668C70.8708 2.87231 70.1558 2.82075 69.4409 2.78982C68.9391 2.46673 68.506 2.13676 68.1004 1.77242L68.1107 1.78273C66.4781 0.751585 62.2538 -1.48257 61.0508 1.47339C60.2774 3.33633 62.1988 5.17521 62.8622 6.12043C63.3915 6.74943 63.8727 7.45404 64.2886 8.1999L64.323 8.26865C64.5258 8.76704 64.5808 9.27917 64.7836 9.79818C65.2819 11.3518 65.7872 12.627 66.3612 13.8609L66.2718 13.6478C66.6121 14.3318 66.9661 14.9127 67.3614 15.4626L67.3339 15.4214C67.5642 15.7342 67.9595 15.882 68.0523 16.3975C67.7567 17.0197 67.5264 17.7415 67.3992 18.4942L67.3923 18.5423C67.0211 19.6835 66.8046 20.9999 66.8046 22.3644C66.8046 24.4989 67.3305 26.5096 68.2585 28.2763L68.2241 28.2076C68.6847 28.9191 69.7777 30.5002 71.242 29.8952C72.5309 29.3797 72.2456 27.747 72.6168 26.3103C72.7028 25.9666 72.6478 25.7397 72.8231 25.506V25.5713C73.2252 26.379 73.6308 27.149 73.9986 27.9567C75.0366 29.4519 76.2705 30.7236 77.6798 31.7719L77.7244 31.8029C78.4119 32.3184 78.9584 33.2121 79.8177 33.5283V33.4424H79.7524C79.5565 33.2293 79.3399 33.0402 79.1027 32.8787L79.089 32.8718C78.5562 32.3494 78.0613 31.7857 77.6145 31.1911L77.587 31.1532C76.4664 29.6409 75.4009 27.9292 74.4763 26.1316L74.3767 25.9219C73.9058 25.0214 73.5105 24.0486 73.1324 23.1584C72.9605 22.8147 72.9605 22.2991 72.6718 22.1273C72.1631 22.6978 71.706 23.3337 71.3245 24.0177L71.297 24.0727C70.857 25.3548 70.5683 26.8362 70.4927 28.3726V28.4104C70.3758 28.4413 70.4342 28.4104 70.3758 28.4723C69.4581 28.2488 69.1419 27.2968 68.7981 26.4959C68.3307 25.2379 68.0592 23.7805 68.0592 22.2648C68.0592 21.0411 68.2345 19.8587 68.5644 18.7417L68.5438 18.831C68.7466 18.2295 69.6059 16.3322 69.2622 15.7548C69.0834 15.2083 68.5163 14.8955 68.2001 14.4521C67.8254 13.9228 67.4817 13.3213 67.1964 12.6854L67.1689 12.6167C66.4815 11.0115 66.1378 9.23105 65.3919 7.6259C64.9417 6.78723 64.4673 6.06543 63.9346 5.39175L63.9586 5.42268C63.3915 4.76619 62.8691 4.03407 62.4153 3.25727L62.3775 3.18853C62.2366 2.87575 62.0338 2.35674 62.2607 2.01302C62.3019 1.81367 62.46 1.65899 62.6628 1.62806C63.0409 1.31872 64.1064 1.72086 64.4776 1.89272C65.5672 2.30518 66.5056 2.78982 67.3752 3.36039L67.3202 3.32602C67.7223 3.60786 68.1588 4.15437 68.6744 4.29529H69.2759C70.1936 4.49809 71.2317 4.35716 72.091 4.60808C73.6686 5.14084 75.0331 5.80764 76.2946 6.62569L76.2224 6.581C80.017 9.0317 83.0555 12.3451 85.1109 16.26L85.1796 16.401C85.5234 17.0609 85.6746 17.6693 85.9874 18.3567C86.5889 19.7728 87.3313 21.2061 87.9431 22.5741C88.524 24.0452 89.2114 25.317 90.0295 26.489L89.9882 26.4272C90.4179 27.0287 92.1433 27.3414 92.9167 27.6542C93.7313 27.9395 94.3844 28.211 95.0168 28.5169L94.8896 28.462C95.8761 29.0635 96.8385 29.7509 97.7665 30.4108C98.2374 30.7373 99.6707 31.4557 99.7566 32.0332L99.7497 32.0435ZM59.4525 57.1794C59.4525 57.231 59.456 57.2894 59.456 57.3478C59.456 59.2658 58.6001 60.9809 57.2459 62.1358L57.2355 62.1427C55.7507 63.3525 53.8362 64.0881 51.7498 64.0881C51.5883 64.0881 51.4268 64.0847 51.2686 64.0743H51.2893C48.7492 64.04 46.4119 63.215 44.4974 61.8368L44.5318 61.8608L45.5492 59.8157C47.0238 60.6406 48.7767 61.1528 50.6396 61.2249H50.6603C50.7531 61.2318 50.8596 61.2353 50.9696 61.2353C52.1107 61.2353 53.1728 60.8778 54.0424 60.2694L54.0252 60.2797C54.8124 59.6817 55.3142 58.7467 55.3142 57.695C55.3142 57.6744 55.3142 57.6572 55.3142 57.6365V57.64C55.3142 56.2239 54.3277 55.0209 52.5301 54.0103C50.8631 53.0961 47.5359 51.1884 47.5359 51.1884C45.8929 50.171 44.8171 48.3803 44.8171 46.3386C44.8171 46.2664 44.8171 46.1942 44.8205 46.1221V46.1324C44.8171 46.0671 44.8171 45.9915 44.8171 45.9158C44.8171 44.1457 45.5973 42.5577 46.8313 41.4785L46.8381 41.4716C48.1511 40.358 49.8663 39.6808 51.7395 39.6808C51.8598 39.6808 51.9767 39.6843 52.0936 39.6877H52.0764C52.1073 39.6877 52.1451 39.6877 52.1829 39.6877C54.3793 39.6877 56.4244 40.3442 58.1292 41.475L58.088 41.451L57.1737 43.4961C55.8298 42.8911 54.2624 42.5268 52.6126 42.5096H52.6057C52.5232 42.5027 52.4304 42.4993 52.3342 42.4993C51.3718 42.4993 50.485 42.8361 49.7907 43.3998L49.7975 43.393C49.1479 43.9326 48.7355 44.7403 48.732 45.6443C48.732 47.0535 49.7357 48.2634 51.5917 49.2946C53.2794 50.2192 56.689 52.1715 56.689 52.1715C58.3664 53.1579 59.4766 54.9521 59.4766 57.0075C59.4766 57.0694 59.4766 57.1347 59.4731 57.1966V57.1863L59.4525 57.1794ZM66.5743 59.0045C65.636 57.1313 65.0895 54.9246 65.0895 52.5908C65.0895 52.223 65.1032 51.8587 65.1307 51.5012L65.1273 51.5493C65.1273 45.5664 66.9455 42.5738 70.582 42.5715C70.6714 42.5646 70.778 42.5612 70.8879 42.5612C72.5206 42.5612 73.9539 43.4136 74.7685 44.6991L74.7788 44.7163C75.7103 46.5792 76.2568 48.779 76.2568 51.1025C76.2568 51.46 76.243 51.814 76.219 52.1646L76.2224 52.1165C76.2224 58.1475 74.4042 61.1654 70.7676 61.1699C70.6748 61.1768 70.5683 61.1803 70.4617 61.1803C68.8291 61.1803 67.3923 60.3278 66.5777 59.0423L66.5674 59.0252L66.5743 59.0045ZM80.7148 64.339L76.3496 62.1908C76.7483 61.8574 77.1058 61.5068 77.4357 61.1287L77.446 61.1184C79.2093 58.7399 80.2679 55.7461 80.2679 52.5083C80.2679 52.1337 80.2542 51.7624 80.2267 51.3947L80.2301 51.4428C80.2301 43.5832 77.1447 39.651 70.9739 39.6465C70.8364 39.6396 70.6748 39.6362 70.5133 39.6362C67.877 39.6362 65.5088 40.7945 63.8968 42.6334L63.8899 42.6437C62.1335 45.0222 61.0783 48.0125 61.0783 51.2503C61.0783 51.6146 61.092 51.9755 61.1195 52.333L61.1161 52.2849C61.0852 52.632 61.068 53.0376 61.068 53.4466C61.068 56.4507 62.0098 59.2348 63.6115 61.5205L63.5805 61.4758C65.1238 63.1188 67.3133 64.1431 69.7365 64.1431C69.9633 64.1431 70.1868 64.1328 70.4067 64.1156L70.3758 64.119C70.4067 64.119 70.448 64.119 70.4858 64.119C71.5547 64.119 72.5893 63.9644 73.5689 63.6791L73.4933 63.6997L79.1852 67.0165L80.732 64.3459L80.7148 64.339ZM94.9721 63.7581H83.6742V40.0074H87.4757V60.84H94.9721V63.7581ZM42.0364 46.2355C41.05 53.3985 38.7918 59.8638 35.4887 65.6554L35.6261 65.3908C34.3028 67.9377 31.8006 69.7113 28.8618 69.9966L28.8274 70C27.9372 69.9519 27.1089 69.7388 26.3561 69.3916L26.3974 69.4088V67.2881C26.8683 67.3603 27.4113 67.4015 27.9647 67.4015C27.9956 67.4015 28.0266 67.4015 28.061 67.4015C28.1159 67.405 28.1744 67.405 28.2362 67.405C29.2296 67.405 30.1404 67.044 30.8416 66.4425L30.8347 66.446C31.5909 65.8239 32.0756 64.8958 32.1031 63.8509C31.9209 62.3455 31.5737 60.9706 31.0753 59.6748L31.1166 59.7916L26.7617 46.2355H30.6698L33.7941 56.3717C34.351 57.8015 34.674 59.4582 34.674 61.1871C34.674 61.1906 34.674 61.194 34.674 61.194C36.3308 56.8563 37.5888 51.7968 38.2281 46.5483L38.259 46.2321L42.0364 46.2355ZM24.7819 63.7581H20.8017C20.6894 57.4315 20.3033 51.1174 19.6434 44.8159H19.609L13.5527 63.7581H10.5246L4.50955 44.8159H4.46831C3.99856 51.1197 3.719 57.4338 3.62964 63.7581H0C0.236018 55.3142 0.822626 47.3961 1.75982 40.0039H6.69902L12.4322 57.4613H12.4666L18.2513 40.0039H22.9533C23.9937 48.6587 24.6066 56.5768 24.7922 63.7581H24.7819ZM70.4617 7.0897C70.4549 7.0897 70.4445 7.0897 70.4342 7.0897C70.0252 7.0897 69.6299 7.14126 69.2519 7.2375L69.2862 7.23063V7.28562H69.3447C69.6403 7.72558 69.9427 8.1071 70.2692 8.46457L70.2624 8.45769C70.4927 8.91827 70.692 9.37541 70.9223 9.83256L70.9807 9.76725C71.3554 9.47165 71.5926 9.01795 71.5926 8.50925C71.5926 8.44738 71.5891 8.38895 71.5822 8.32708V8.33396C71.4104 8.13116 71.3863 7.93181 71.2385 7.73245C71.0667 7.44373 70.6989 7.30281 70.4652 7.07595L70.4617 7.0897Z" fill="white"/>
</svg>
