<svg width="105" height="55" viewBox="0 0 105 55" fill="none" xmlns="http://www.w3.org/2000/svg">
<path d="M81.9568 20.9525C82.7167 21.7945 82.8969 23.2403 82.4996 25.2882C82.0844 27.4212 81.2852 28.9429 80.101 29.855C78.9157 30.7672 77.1133 31.2233 74.6927 31.2233H71.0407L73.2826 19.6895H77.3958C79.6772 19.6895 81.1968 20.1108 81.9568 20.9525ZM30.5386 19.6895H26.4254L24.1833 31.2233H27.8351C30.2551 31.2233 32.0581 30.7672 33.2434 29.855C34.4278 28.9429 35.2268 27.421 35.642 25.2882C36.0393 23.24 35.8589 21.7945 35.0992 20.9525C34.3394 20.1108 32.8198 19.6895 30.5386 19.6895ZM104.555 27.5C104.555 42.6879 81.1492 55 52.2775 55C23.4058 55 0 42.6879 0 27.5C0 12.3123 23.4058 0 52.2775 0C81.1492 0 104.555 12.3123 104.555 27.5ZM40.5211 29.4C41.1431 28.2853 41.5857 27.055 41.8476 25.7095C42.4823 22.4425 42.0033 19.898 40.4104 18.0749C38.8183 16.2519 36.2845 15.3407 32.812 15.3407H21.2674L15.9114 42.899H21.915L23.3387 35.573H28.4813C30.7498 35.573 32.6164 35.3349 34.0818 34.8575C35.547 34.381 36.8786 33.5822 38.0774 32.4597C39.0831 31.5349 39.8972 30.5155 40.5211 29.4ZM61.6514 35.573L64.1437 22.7478C64.651 20.1396 64.2704 18.2523 63.0037 17.0875C61.7359 15.9237 59.4335 15.3407 56.0944 15.3407H50.7883L52.2126 8.0137H46.2565L40.8994 35.5728H46.8556L49.9239 19.7842H54.6845C56.2084 19.7842 57.2047 20.0363 57.6726 20.5409C58.1405 21.0456 58.24 21.9917 57.9703 23.3786L55.6007 35.5728H61.6514V35.573ZM87.2678 18.0751C85.6759 16.2521 83.1421 15.3409 79.6696 15.3409H68.1248L62.7686 42.8992H68.7724L70.1959 35.5732H75.3387C77.607 35.5732 79.4738 35.3351 80.939 34.8577C82.4042 34.3812 83.7358 33.5824 84.9346 32.4599C85.9413 31.5349 86.7548 30.5157 87.3783 29.4002C88.0011 28.2855 88.4426 27.0552 88.7048 25.7097C89.3396 22.4425 88.8607 19.898 87.2678 18.0751Z" fill="white"/>
</svg>
